<svg xmlns="http://www.w3.org/2000/svg" width="200" height="400">
	<!-- 按钮 -->
	<!-- 未关注 -->
	<svg width="11" height="11" x="0" y="0">
		<path d="M0 5h11v1h-11zM5 0h1v11h-1z"/>
	</svg>
	<!-- 已关注 -->
	<svg width="12" height="9" x="0" y="20">
		<path d="M.708 3.364l4.242 4.242-.707.707-4.242-4.242zM11.313 1.243l-7.07 7.07-.707-.707 7.07-7.07z"/>
	</svg>
	<!-- 播放 -->
	<svg width="11" height="14" x="0" y="40">
		<path d='m1.137,12.87565l8.625,-5.627c0.32,-0.209 0.32,-0.289 0,-0.497l-8.625,-5.625c-0.265,-0.173 -0.138,-0.242 -0.138,0.07l0,11.61c0,0.306 -0.123,0.24 0.138,0.069zm0.542,0.847c-0.927,0.604 -1.679,0.187 -1.679,-0.917l0,-11.61c0,-1.11 0.75,-1.522 1.679,-0.916l8.625,5.625c0.927,0.605 0.93,1.584 0,2.19l-8.625,5.628z'/>
	</svg>
	<!-- 下载 -->
	<svg width="11" height="13" x="0" y="60">
		<path d='M10,10.492c0,1.133-.293,1.5-1.322,1.5-0.576,0-6.206-.019-6.377,0A1.327,1.327,0,0,1,1,10.492v-1.5L0,9v1.855c0,1.693.985,2.139,2.778,2.139H8.684c1.582,0,2.31-.383,2.31-2.076L11,9l-1,0v1.5ZM5-.016H6v10L5,10V-0.016ZM10.5,3.991L11,5.068,6,9.991,5,9.452Zm-10,0L0,5.068,5,9.991l1-.539Z' style='fill-rule:evenodd;'/>
	</svg>
	<!-- 批量操作 -->
	<svg width="17" height="13" x="0" y="80">
		<path d='m6.5,1l10,0c0.27614,0 0.5,0.22386 0.5,0.5c0,0.27614 -0.22386,0.5 -0.5,0.5l-10,0c-0.27614,0 -0.5,-0.22386 -0.5,-0.5c0,-0.27614 0.22386,-0.5 0.5,-0.5zm0,5l10,0c0.27614,0 0.5,0.22386 0.5,0.5c0,0.27614 -0.22386,0.5 -0.5,0.5l-10,0c-0.27614,0 -0.5,-0.22386 -0.5,-0.5c0,-0.27614 0.22386,-0.5 0.5,-0.5zm0,5l10,0c0.27614,0 0.5,0.22386 0.5,0.5c0,0.27614 -0.22386,0.5 -0.5,0.5l-10,0c-0.27614,0 -0.5,-0.22386 -0.5,-0.5c0,-0.27614 0.22386,-0.5 0.5,-0.5zm-4.586,-9.086l1.768,-1.768c0.12647,-0.12629 0.31071,-0.17552 0.48332,-0.12914c0.17261,0.04638 0.30737,0.18133 0.3535,0.354c0.04614,0.17267 -0.00335,0.35685 -0.12982,0.48314l-2.121,2.12c-0.19525,0.19519 -0.51175,0.19519 -0.707,0l-1.415,-1.412c-0.12629,-0.12647 -0.17552,-0.31071 -0.12914,-0.48332c0.04638,-0.17261 0.18133,-0.30737 0.354,-0.3535c0.17267,-0.04614 0.35685,0.00335 0.48314,0.12982l1.06,1.06l0,-0.001zm0,5l1.768,-1.768c0.12647,-0.12629 0.31071,-0.17552 0.48332,-0.12914c0.17261,0.04638 0.30737,0.18133 0.3535,0.354c0.04614,0.17267 -0.00335,0.35685 -0.12982,0.48314l-2.121,2.12c-0.19525,0.19519 -0.51175,0.19519 -0.707,0l-1.415,-1.412c-0.19523,-0.19551 -0.19501,-0.51227 0.0005,-0.7075c0.19551,-0.19523 0.51227,-0.19501 0.7075,0.0005l1.06,1.06l0,-0.001zm0,5l1.768,-1.768c0.12647,-0.12629 0.31071,-0.17552 0.48332,-0.12914c0.17261,0.04638 0.30737,0.18133 0.3535,0.354c0.04614,0.17267 -0.00335,0.35685 -0.12982,0.48314l-2.121,2.12c-0.19525,0.19519 -0.51175,0.19519 -0.707,0l-1.415,-1.413c-0.19523,-0.19551 -0.19501,-0.51227 0.0005,-0.7075c0.19551,-0.19523 0.51227,-0.19501 0.7075,0.0005l1.06,1.06z'/>
	</svg>
	<!-- 电台 -->
	<svg width="13" height="12" x="0" y="100">
		<path d="M9.9 10.5c1.3-1.1 2.1-2.7 2.1-4.5 0-3.3-2.7-6-6-6s-6 2.7-6 6c0 1.8.8 3.4 2.1 4.5l.6-.8c-1.1-.9-1.7-2.2-1.7-3.7 0-2.8 2.2-5 5-5s5 2.2 5 5c0 1.5-.6 2.8-1.6 3.7l.5.8zM8.1 8.1c.6-.5.9-1.3.9-2.1 0-1.7-1.3-3-3-3s-3 1.3-3 3c0 .8.3 1.6.9 2.1l.6-.8c-.3-.3-.5-.8-.5-1.3 0-1.1.9-2 2-2s2 .9 2 2c0 .5-.2 1-.5 1.3l.6.8zM8.5 12h1l-3.5-5.1-3.5 5.1h1.1l2.4-3.6z"/>
	</svg>

	<!-- 分享 -->
	<svg width="12" height="12" x="0" y="140">
		<path d='M10,12H2a2,2,0,0,1-2-2V2A2,2,0,0,1,2,0H5V1H2A1,1,0,0,0,1,2v8a1,1,0,0,0,1,1h8a1,1,0,0,0,1-1V7h1v3A2,2,0,0,1,10,12ZM11,1.732L4.744,7.988,4.012,7.256,10.268,1H8V0h4V4H11V1.732Z'/>
	</svg>

	<!-- 收听 -->
	<svg width='14' height='14' x="0" y="160"><path d='M11 8.035v-1.035a4 4 0 1 0-8 0v1.035a1.307 1.307 0 0 1 1.6 1.275v1.38c0 .724-.577 1.31-1.3 1.31-.718 0-1.3-.59-1.3-1.31v-3.69a5 5 0 1 1 10 0v3.69c0 .724-.577 1.31-1.3 1.31-.718 0-1.3-.59-1.3-1.31v-1.38a1.302 1.302 0 0 1 1.6-1.275z'/></svg>

	<!-- 箭头 -->
	<svg width='10' height='6' x="0" y="180">
		<path d='M9.678,1.223L5.407,5.667a0.613,0.613,0,0,1-.054.084,0.638,0.638,0,0,1-.188.127C5.151,5.886,5.138,5.9,5.125,5.9L5.1,5.913a0.445,0.445,0,0,1-.493-0.041,0.915,0.915,0,0,1-.252-0.184l-4.1-4.464A0.722,0.722,0,0,1,.19.188a0.644,0.644,0,0,1,.966.158l3.77,4.1L8.9,0.314A0.639,0.639,0,0,1,9.867.188,0.746,0.746,0,0,1,9.678,1.223Z'></path>
	</svg>

	<!-- 箭头 -->
	<svg width='8' height='12' x="0" y="200">
		<path d='M1.26 9.633a.782.782 0 0 0-.055 1.11.794.794 0 0 0 1.117.053l4.246-3.826.09-.09a1.303 1.303 0 0 0-.09-1.848l-4.246-3.828a.794.794 0 0 0-1.117.054.782.782 0 0 0 .054 1.109l4.031 3.633-4.03 3.633z'></path>
	</svg>

	<svg width="12" height="15" x="24" y="0">
		<title>歌曲列表 播放</title>
		<path d='M10.56 7.42l-9.57-6.055v12.11l9.57-6.055zm-9.7 7.369c-.475.3-.86.07-.86-.52v-13.699c0-.586.388-.817.86-.518l10.785 6.825c.475.3.472.79 0 1.088l-10.785 6.824z'/>
	</svg>
	<!-- 歌曲列表 暂停 -->
	<svg width="9" height="15" x="25" y="20">
		<title>歌曲列表 暂停</title>
		<path d='M0 0h1v15h-1v-15zm8 0h1v15h-1v-15z'/>
	</svg>

	<svg width="15" height="15" x="24" y="40">
		<title>歌曲列表 添加</title>
		<path d='M2 1a1 1 0 0 0-1 1v11a1 1 0 0 0 1 1h11a1 1 0 0 0 1-1v-11a1 1 0 0 0-1-1h-11zm0-1h11a2 2 0 0 1 2 2v11a2 2 0 0 1-2 2h-11a2 2 0 0 1-2-2v-11a2 2 0 0 1 2-2zm5 7v-4h1v4h4v1h-4v4h-1v-4h-4v-1h4z'/>
	</svg>

	<svg width="16" height="16" x="24" y="60">
		<title>歌曲列表 更多</title>
		<path d="M8 15a7 7 0 1 0 0-14 7 7 0 0 0 0 14zm0 1a8 8 0 1 1 0-16 8 8 0 0 1 0 16zm-3-9a1 1 0 1 1 0 2 1 1 0 0 1 0-2zm3 0a1 1 0 1 1 0 2 1 1 0 0 1 0-2zm3 0a1 1 0 1 1 0 2 1 1 0 0 1 0-2z"/>
	</svg>

	<svg width="15" height="16" x="24" y="80">
		<title>歌曲列表 下载</title>
		<path d="m5.001,5.509a0.5,0.5 0 1 1 -1,0l0,-4.042c0,-0.811 0.664,-1.467 1.479,-1.467l4.044,0c0.813,0 1.476,0.658 1.476,1.467l0,3.955c0,1.28 1.24,2.578 2.521,2.578c0.42,0 0.82,0.177 1.1,0.487a1.46,1.46 0 0 1 -0.116,2.076l-6.025,5.065a1.488,1.488 0 0 1 -1.968,0l-6.017,-5.065a1.463,1.463 0 0 1 -0.495,-1.095c0,-0.812 0.663,-1.468 1.479,-1.468l3.647,0a0.5,0.5 0 1 1 0,1l-3.646,0a0.473,0.473 0 0 0 -0.48,0.468c0,0.131 0.057,0.257 0.157,0.346l6.019,5.065c0.182,0.161 0.46,0.161 0.643,0l6.023,-5.065a0.46,0.46 0 0 0 0.038,-0.656a0.484,0.484 0 0 0 -0.359,-0.158c-1.833,0 -3.521,-1.745 -3.521,-3.578l0,-3.955a0.474,0.474 0 0 0 -0.477,-0.467l-4.044,0a0.473,0.473 0 0 0 -0.479,0.467l0,4.042l0.001,0z"/>
	</svg>

	<!-- 角标 -->
	<svg width="42" height="18" x="20" y="100">
		<path d="M0,0H42s-2.191,6.582-3.431,9.663C36.3,15.3,34.128,18,25.379,18H0V0Z"/>
	</svg>

	<!-- 回到顶部 -->
	<svg width="30" height="30" x="20" y="120">
		<path d="M-0,30 L-0,-0 L30,-0 L30,30 L-0,30 ZM29,1 L1,1 L1,29 L29,29 L29,1 ZM20.990,17.291 L20.324,17.989 L15,12.406 L9.676,17.989 L9.010,17.291 L15,11.011 L20.990,17.291 Z"/>
	</svg>

	<!-- 定位当前歌曲 -->
	<svg width="30" height="30" x="20" y="150">
		<path d="M-0,30 L-0,-0 L30,-0 L30,30 L-0,30 ZM29,1 L1,1 L1,29 L29,29 L29,1 ZM14,6.061 L14,7.093 C10.387,7.548 7.521,10.385 7.069,14 L6.059,14 C6.520,9.830 9.830,6.523 14,6.061 ZM14,22.907 L14,23.939 C9.830,23.477 6.520,20.170 6.059,16 L7.069,16 C7.521,19.615 10.387,22.452 14,22.907 ZM11,15 C11,12.791 12.791,11 15,11 C17.209,11 19,12.791 19,15 C19,17.209 17.209,19 15,19 C12.791,19 11,17.209 11,15 ZM15,18 C16.657,18 18,16.657 18,15 C18,13.343 16.657,12 15,12 C13.343,12 12,13.343 12,15 C12,16.657 13.343,18 15,18 ZM22.931,16 L23.941,16 C23.480,20.170 20.170,23.477 16,23.939 L16,22.907 C19.613,22.452 22.479,19.615 22.931,16 ZM16,7.093 L16,6.061 C20.170,6.523 23.480,9.830 23.941,14 L22.931,14 C22.479,10.385 19.613,7.548 16,7.093 Z"/>
	</svg>

	<!-- 评论：赞 -->
	<svg width="17" height="17" x="20" y="180">
		<path d="M1.61 17C.724 17 0 16.245 0 15.317V6.932C0 6.004.849 5 1.737 5l4.017-.001c.649-.016.856-.186 1.537-2.03C7.888 1.35 7.478 0 9.325 0c2.227 0 2.68 2.417 2.417 3.444l-.25.98A.462.462 0 0 0 11.94 5h2.295c.62 0 1.205.3 1.591.817.35.464.404 1.268.322 1.892l-1.052 6.616C14.822 15.875 13.52 17 12.002 17H1.61zm.127-11c-.266 0-.669.434-.73.833L1 6.932v8.385c0 .35.235.628.523.676l.088.007H4.05V6H1.737zM5 16h7.002c.973 0 1.824-.692 2.071-1.667l.035-.165 1.03-6.47c.092-.517.03-1.095-.112-1.282a1.006 1.006 0 0 0-.679-.409L14.235 6H11.94a1.462 1.462 0 0 1-1.416-1.822l.25-.98C11.019 2.233 10.415 1 9.325 1l-.177.001c-.308.007-.36.066-.461.522l-.18.839-.028.115c-.072.3-.151.57-.25.838l-.166.442c-.315.817-.536 1.258-.81 1.584-.435.518-.816.643-1.54.657L5.538 6H5v10z"/>
	</svg>

	<!-- 评论 更多 -->
	<svg width="15" height="15" x="20" y="210">
		<path d="M3 2.5a.5.5 0 0 1 .492.41L3.5 3v5a.5.5 0 0 0 .41.492L4 8.5h6.101L8.146 6.546a.5.5 0 0 1 .638-.765l.07.057 2.55 2.55a1 1 0 0 1 .083 1.32l-.083.095-2.55 2.55a.5.5 0 0 1-.765-.637l.057-.07L10.291 9.5H4a1.5 1.5 0 0 1-1.493-1.356L2.5 8V3a.5.5 0 0 1 .5-.5z"/>
	</svg>

	<!-- 评论：删除 -->
	<svg width="14" height="16" x="50" y="0">
		<path d="M10,3V2.145A1.131,1.131,0,0,0,8.892,1H5.106A1.131,1.131,0,0,0,3.995,2.145V3H3V2A2,2,0,0,1,5,0H9a2,2,0,0,1,2,2V3H10ZM0,3H14V4H0V3ZM2,6v6.772A2.164,2.164,0,0,0,4.093,15H9.9A2.163,2.163,0,0,0,12,12.772V6h1v7a3,3,0,0,1-3,3H4a3,3,0,0,1-3-3V6H2ZM5,6H6v7H5V6ZM8,6H9v7H8V6Z"/>
	</svg>

	<!-- 评论：回复 -->
	<svg width="14" height="14" x="50" y="17">
		<path d="M11.9 0c1.16 0 2.1.986 2.1 2.205v7.754c0 1.217-.94 2.204-2.1 2.204H9.144a.663.663 0 0 0-.508.243l-1.127 1.352a.654.654 0 0 1-1.018 0l-1.127-1.352a.663.663 0 0 0-.508-.243H2.1c-1.16 0-2.1-.985-2.1-2.204V2.205C0 .987.94 0 2.1 0h9.8zm.055 1.014H2.157c-.558 0-1.092.432-1.15 1.004L1 2.142v7.86c0 .588.458 1.08 1.001 1.141l.118.007h2.796c.432 0 .838.166 1.149.475l.112.122.868 1.047.871-1.047c.285-.342.68-.546 1.107-.59l.16-.007h2.735c.558 0 1.018-.453 1.077-1.025l.006-.124.037-7.847c0-.589-.421-1.072-.964-1.134l-.118-.006zM4 5.068c.552 0 1 .45 1 1.002v.024a.999.999 0 0 1-.883.995L4 7.095c-.552 0-1-.45-1-1.001V6.07c0-.514.383-.937.883-.995L4 5.068zm3 0c.552 0 1 .45 1 1.002v.024a.999.999 0 0 1-.883.995L7 7.095c-.552 0-1-.45-1-1.001V6.07c0-.514.383-.937.883-.995L7 5.068zm3 0c.552 0 1 .45 1 1.002v.024a.999.999 0 0 1-.883.995L10 7.095c-.552 0-1-.45-1-1.001V6.07c0-.514.383-.937.883-.995L10 5.068z"/>
	</svg>

	<!-- 评论：回复1位数 -->
	<svg width="14" height="14" x="50" y="241">
		<path d="M13 5.568a.5.5 0 1 1 1 0v4.39c0 1.218-.94 2.205-2.1 2.205H9.144a.663.663 0 0 0-.508.243l-1.127 1.352a.654.654 0 0 1-1.018 0l-1.127-1.352a.663.663 0 0 0-.508-.243H2.1c-1.16 0-2.1-.985-2.1-2.204V2.205C0 .987.94 0 2.1 0h6.4a.5.5 0 0 1 .5.5v.014a.5.5 0 0 1-.5.5H2.098c-.561 0-1.023.444-1.083 1.016L1 2.154v7.847c0 .589.433 1.08.979 1.142l.119.007H4.9c.434 0 .812.166 1.125.475l.112.122.874 1.047.875-1.047a1.744 1.744 0 0 1 1.15-.59l.162-.007h2.75c.56 0 .985-.453 1.045-1.025l.006-.124zm-9-.5c.552 0 1 .45 1 1.002v.024a.999.999 0 0 1-.883.995L4 7.095c-.552 0-1-.45-1-1.001V6.07c0-.514.383-.937.883-.995L4 5.068zm3 0c.552 0 1 .45 1 1.002v.024a.999.999 0 0 1-.883.995L7 7.095c-.552 0-1-.45-1-1.001V6.07c0-.514.383-.937.883-.995L7 5.068zm3 0c.552 0 1 .45 1 1.002v.024a.999.999 0 0 1-.883.995L10 7.095c-.552 0-1-.45-1-1.001V6.07c0-.514.383-.937.883-.995L10 5.068z"/>
	</svg>

	<!-- 评论：回复2位数 -->
	<svg width="14" height="14" x="50" y="201">
		<path d="M14 9.959c0 1.217-.94 2.204-2.1 2.204H9.144a.663.663 0 0 0-.508.243l-1.127 1.352a.654.654 0 0 1-1.018 0l-1.127-1.352a.663.663 0 0 0-.508-.243H2.1c-1.16 0-2.1-.985-2.1-2.204V2.205C0 .987.94 0 2.1 0h3.4a.5.5 0 0 1 .5.5v.014a.5.5 0 0 1-.5.5H2.098c-.561 0-1.032.444-1.092 1.016L1 2.154l.015 7.847c0 .589.375 1.08.921 1.142l.119.007h2.803c.434 0 .855.166 1.168.475l.112.122.874 1.047.875-1.047c.286-.342.66-.546 1.088-.59l.162-.007h2.75c.56 0 1.047-.453 1.107-1.025l.006-.124-.001-3.92H13v-.513a.5.5 0 0 1 .41-.492l.09-.008a.5.5 0 0 1 .5.5v4.39zM4 5.069c.552 0 1 .449 1 1v.025a.999.999 0 0 1-.883.995L4 7.095c-.552 0-1-.45-1-1.001V6.07c0-.514.383-.937.883-.995L4 5.068zm3 0c.552 0 1 .449 1 1v.025a.999.999 0 0 1-.883.995L7 7.095c-.552 0-1-.45-1-1.001V6.07c0-.514.383-.937.883-.995L7 5.068zm3 0c.552 0 1 .449 1 1v.025a.999.999 0 0 1-.883.995L10 7.095c-.552 0-1-.45-1-1.001V6.07c0-.514.383-.937.883-.995L10 5.068z"/>
	</svg>

	<!-- 评论：回复3位数 -->
	<svg width="14" height="14" x="50" y="221">
		<path d="M13 5.568a.5.5 0 1 1 1 0v4.39c0 1.218-.94 2.205-2.1 2.205H9.144a.663.663 0 0 0-.508.243l-1.127 1.352a.654.654 0 0 1-1.018 0l-1.127-1.352a.663.663 0 0 0-.508-.243H2.1c-1.16 0-2.1-.985-2.1-2.204V2.205C0 .987.94 0 2.1 0h2.4a.5.5 0 0 1 .5.5v.014a.5.5 0 0 1-.5.5H2.153c-.556 0-1.088.432-1.147 1.004L1 2.142v7.86c0 .588.457 1.08.998 1.141l.118.007h2.787c.43 0 .835.166 1.145.475l.111.122.867 1.047.868-1.047a1.64 1.64 0 0 1 1.103-.59l.16-.007h2.726c.556 0 1.058-.443 1.117-1.014zm-9-.5c.552 0 1 .45 1 1.002v.024a.999.999 0 0 1-.883.995L4 7.095c-.552 0-1-.45-1-1.001V6.07c0-.514.383-.937.883-.995L4 5.068zm3 0c.552 0 1 .45 1 1.002v.024a.999.999 0 0 1-.883.995L7 7.095c-.552 0-1-.45-1-1.001V6.07c0-.514.383-.937.883-.995L7 5.068zm3 0c.552 0 1 .45 1 1.002v.024a.999.999 0 0 1-.883.995L10 7.095c-.552 0-1-.45-1-1.001V6.07c0-.514.383-.937.883-.995L10 5.068z"/>
	</svg>

	<!-- 评论：表情符号 -->
	<svg width="20" height="20" x="50" y="32">
		<path d="M10,20A10,10,0,1,1,20,10,10,10,0,0,1,10,20ZM10,1a9,9,0,1,0,9,9A9,9,0,0,0,10,1ZM5,10v0.714H5.045A4.877,4.877,0,0,0,10,15a4.877,4.877,0,0,0,4.954-4.286H15V10h1v1H15.944A5.8,5.8,0,0,1,10,16a5.8,5.8,0,0,1-5.945-5H4V10H5ZM6.5,5A1.5,1.5,0,1,1,5,6.5,1.5,1.5,0,0,1,6.5,5Zm7,0A1.5,1.5,0,1,1,12,6.5,1.5,1.5,0,0,1,13.5,5Z"/>
	</svg>

	<!-- 评论：等级星星 -->
	<svg width="110" height="18" x="50" y="52">
		<path d="M10,0l2,7h8l-6.2,4.12L16.18,18,10,13.733,3.817,18,6.2,11.119,0,7H8ZM32,0l2,7h8l-6.2,4.12L38.18,18,32,13.733,25.818,18,28.2,11.119,22,7h8ZM54,0l2,7h8l-6.2,4.12L60.18,18,54,13.733,47.818,18,50.2,11.119,44,7h8ZM76,0l2,7h8l-6.2,4.12L82.18,18,76,13.733,69.818,18,72.2,11.119,66,7h8ZM98,0l2,7h8l-6.2,4.12L104.18,18,98,13.733,91.818,18,94.2,11.119,88,7h8Z"/>
	</svg>

	<!-- MV播放 -->
	<svg width="14" height="14" x="50" y="70">
		<path d='M11 5.672l1.606-1.131a.25.25 0 0 1 .394.204v3.46a.3.3 0 0 1-.473.246l-1.527-1.075v1.624a2 2 0 0 1-2 2h-5a2 2 0 0 1-2-2v-5a2 2 0 0 1 2-2h5a2 2 0 0 1 2 2v1.672zm-7-2.672a1 1 0 0 0-1 1v5a1 1 0 0 0 1 1h5a1 1 0 0 0 1-1v-5a1 1 0 0 0-1-1h-5z'/>
	</svg>

	<!-- MV播放 -->
	<svg width="11" height="12" x="50" y="85">
		<path d='M10.8,10.1c0.2,0.2,0.2,0.5,0,0.7c-0.2,0.2-0.5,0.2-0.7,0L8.2,9
	c0,0,0-0.1-0.1-0.1c-2,1.6-4.9,1.6-6.7-0.3c-2-2-2-5.1,0-7.1c2-2,5.1-2,7.1,0c1.8,1.8,1.9,4.8,0.3,6.7c0,0,0.1,0,0.1,0.1L10.8,10.1z
	 M7.8,2.3c-1.6-1.6-4.1-1.6-5.7,0c-1.6,1.6-1.6,4.1,0,5.7c1.6,1.6,4.1,1.6,5.7,0C9.4,6.3,9.4,3.8,7.8,2.3z'/>
	</svg>

	<!-- 微云图标1 -->
	<svg width="15" height="11" x="70" y="80">
		<path d="M11.76 5.4l-.975-.024v-.976c.001-1.884-1.475-3.4-3.285-3.4-1.809 0-3.286 1.516-3.286 3.4v.976l-.974.024a2.3 2.3 0 0 0 .06 4.6h8.4a2.3 2.3 0 0 0 .06-4.6zm3.24 2.3a3.3 3.3 0 0 1-3.3 3.3h-8.4a3.3 3.3 0 0 1-.086-6.599c0-2.431 1.92-4.401 4.286-4.401 2.367 0 4.286 1.97 4.286 4.4a3.302 3.302 0 0 1 3.214 3.3z"/>
	</svg>

	<!-- 微云图标2 -->
	<svg width="9" height="9" x="70" y="110">
		<path d="M4.5,9A4.5,4.5,0,1,1,9,4.5,4.5,4.5,0,0,1,4.5,9ZM6.324,3.005L3.866,5.558,2.695,4.31l-0.684.735L3.867,7,6.985,3.716Z"/>
	</svg>

	<svg width="14" height="12" x="50" y="180">
		<title>发表评论</title>
		<path
		 d="M-0,11.998 L-0,10.972 L14,10.972 L14,11.998 L-0,11.998 ZM3.002,8.916 L1.765,8.912 L1.766,7.787 L9.586,0.144 C9.793,-0.058 10.126,-0.059 10.331,0.142 L10.783,0.584 C10.988,0.784 10.988,1.110 10.783,1.310 L3.002,8.916 Z"/>
	</svg>

	<svg width="16" height="14" x="54" y="120">
		<title>不喜欢</title>
		<path d="M15.897 5.532c-.473 2.779-4.866 6.014-6.95 7.68-.427.328-1.108.788-1.108.788s-.779-.66-.857-.684l-.819-.661.575-.598c.262.22.553.462.885.738l.06.042a3.962 3.962 0 0 1 .21.163l.074-.054c.11-.083.208-.158.273-.21.172-.14 1.102-.896 1.386-1.129.6-.494 1.108-.925 1.592-1.357 1.356-1.212 2.372-2.301 3.013-3.291.38-.588.608-1.112.68-1.553.114-.682.116-1.293.022-1.828l.812-.842c.262.77.338 1.703.152 2.796zM13.796.47l-.726.751a3.356 3.356 0 0 0-.272-.09c-1.536-.44-3.182.252-3.863 1.736a1.15 1.15 0 0 1-2.101.013C6.11 1.355 4.564.734 3.106 1.222 1.589 1.73.722 3.24 1.08 5.406c.096.582.508 1.364 1.21 2.27.577.747 1.325 1.55 2.22 2.401l-.61.635C2.122 9.079.37 7.14.095 5.532-.783.384 4.598-1.428 7.164 1.365l.438.565s.196.322.282.498a4.32 4.32 0 0 1 .279-.501l.436-.562C9.938-.084 12.14-.375 13.796.47zM14.919.419l-11.275 11.8a.563.563 0 0 0 .015.792.553.553 0 0 0 .787-.015l11.274-11.8a.563.563 0 0 0-.015-.792.553.553 0 0 0-.786.015z"/>
	</svg>

	<svg width="16" height="16" x="54" y="140">
		<title>刷新</title>
		<path d="M2.756 6.635h1.846l-2.887 4.637c-.645-1.411-.745-3.27-.707-3.772.02-.248.024-.622.07-.865h.158c.48-3.345 3.35-5.918 6.82-5.918 1.736 0 3.372.647 4.631 1.793a.75.75 0 0 1-1.01 1.11 5.356 5.356 0 0 0-3.62-1.403c-2.64 0-4.836 1.903-5.301 4.418zm10.593 2.23h-1.951l2.887-4.637c.645 1.411.745 3.27.707 3.772-.02.248-.024.622-.07.865h-.051c-.512 3.389-3.428 5.987-6.95 5.987-1.77 0-3.439-.66-4.723-1.83a.75.75 0 0 1 1.01-1.108 5.492 5.492 0 0 0 3.713 1.438c2.69 0 4.933-1.93 5.428-4.487z"/>
	</svg>

	<svg width="16" height="40" x="80" y="0">
		<path d="M1.108 38.257a.6.6 0 1 0 .984.686l12.35-17.714a1.1 1.1 0 0 0 0-1.258l-12.35-17.714a.6.6 0 1 0-.984.686l12.31 17.657-12.31 17.657z"/>
	</svg>

	<svg width="33" height="14" x="80" y="200">
		<title>下拉箭头</title>
		<path d="M1 12c4.147-.181 6.877-1.105 8.19-2.77l5.8-7.358a2 2 0 0 1 3.067-.089l6.603 7.447c1.82 1.846 4.398 2.77 7.735 2.77h-31.395z"/>
	</svg>

	<svg width="16" height="14" x="100" y="0">
		<title>已收藏</title>
		<path d="M7.113 1.247l.472.475c.107.112.21.218.409.42l.004-.004 1.147 1.156a.638.638 0 0 0 .906 0 .647.647 0 0 0 0-.912L8.876 1.2c2.647-2.655 7.902-.776 7.027 4.4-.457 2.705-7.136 8.025-7.136 8.025-.427.351-1.12.355-1.552-.003 0 0-6.583-5.219-7.096-8.057C-.16 4.006.082 2.91.555 2.028 1.843-.374 5.22-.458 7.113 1.247z"/>
	</svg>

	<svg width="16" height="14" x="100" y="20">
		<title>收藏</title>
		<path d="M10.171 11.08c.105-.103.832-.76.95-.869.544-.5 1.022-.965 1.477-1.449.82-.872 1.462-1.698 1.879-2.463.339-.622.514-1.18.514-1.658 0-2.338-1.403-3.641-3.04-3.641-.771 0-1.44.198-2.022.596a.507.507 0 0 1-.702-.127.497.497 0 0 1 .129-.696C10.109.258 10.979 0 11.952 0 14.132 0 16 1.736 16 4.641c0 .665-.223 1.377-.636 2.134-.463.85-1.154 1.74-2.029 2.67-.473.503-.968.984-1.527 1.499-.137.126-.838.759-.924.844-.627.621-2.037 1.836-2.338 2.027-.396.253-.794.253-1.137-.041l-.2-.17c-.12-.102-.25-.213-.402-.347-.418-.366-.944-.84-1.612-1.457-.17-.157-.927-.833-.993-.893a32.711 32.711 0 0 1-1.237-1.166C1.249 8.026.21 6.474.027 4.929A3.872 3.872 0 0 1 0 4.472C0 1.644 1.922.07 3.995.07c1.257 0 2.326.388 3.204 1.134.529.449 1.375 1.341 2.553 2.688a.497.497 0 0 1-.05.706.508.508 0 0 1-.712-.05C7.843 3.235 7.022 2.369 6.543 1.962c-.695-.59-1.53-.893-2.548-.893-1.554 0-2.986 1.174-2.986 3.403 0 .112.007.225.02.34.15 1.262 1.083 2.657 2.652 4.224.362.362.739.715 1.2 1.132.06.054.824.736 1.002.9.662.611 1.181 1.08 1.592 1.44a34.501 34.501 0 0 0 .535.46c.256-.171 1.589-1.32 2.161-1.887z"/>
	</svg>
	
	<svg width="18" height="11" x="100" y="80">
		<title>HQ</title>
		<path d="M2 1a1 1 0 0 0-1 1v7a1 1 0 0 0 1 1h14a1 1 0 0 0 1-1v-7a1 1 0 0 0-1-1h-14zm0-1h14a2 2 0 0 1 2 2v7a2 2 0 0 1-2 2h-14a2 2 0 0 1-2-2v-7a2 2 0 0 1 2-2zm2 5h3v-2h1v5h-1v-2h-3v2h-1v-5h1v2zm8.51 2.229l-.864-.853.703-.711.971.958a1.85 1.85 0 1 0-.81.605zm1.525.1l.472.467-.703.711-.539-.533a2.85 2.85 0 1 1 .77-.645z"/>
	</svg>

	<svg width="18" height="11" x="100" y="100">
		<title>SQ</title>
		<path d="M2 1a1 1 0 0 0-1 1v7a1 1 0 0 0 1 1h14a1 1 0 0 0 1-1v-7a1 1 0 0 0-1-1h-14zm0-1h14a2 2 0 0 1 2 2v7a2 2 0 0 1-2 2h-14a2 2 0 0 1-2-2v-7a2 2 0 0 1 2-2zm10.51 7.229l-.864-.853.703-.711.971.958a1.85 1.85 0 1 0-.81.605zm1.525.1l.472.467-.703.711-.539-.533a2.85 2.85 0 1 1 .77-.645zm-8.535-1.329c-1.38 0-2.5-.784-2.5-1.75s1.12-1.75 2.5-1.75 2.5.784 2.5 1.75h-1c0-.322-.611-.75-1.5-.75s-1.5.428-1.5.75.611.75 1.5.75c1.38 0 2.5.784 2.5 1.75s-1.12 1.75-2.5 1.75-2.5-.784-2.5-1.75h1c0 .322.611.75 1.5.75s1.5-.428 1.5-.75-.611-.75-1.5-.75zm0-1v1-1zm0 0v1-1z"/>
	</svg>

	<svg width="18" height="11" x="100" y="120">
		<title>5.1</title>
		<path d="M16 0a2 2 0 0 1 2 2v7a2 2 0 0 1-2 2H2a2 2 0 0 1-2-2V2a2 2 0 0 1 2-2h14zm0 1H2a1 1 0 0 0-1 1v7a1 1 0 0 0 1 1h14a1 1 0 0 0 1-1V2a1 1 0 0 0-1-1zM8.643 2.5v1H5.867l-.26 1.142c.165-.048.338-.08.516-.093l.198-.008c1.283 0 2.322.935 2.322 2.09 0 1.103-.951 2.007-2.156 2.083l-.166.006C5.04 8.72 4 7.784 4 6.63h1c0 .577.57 1.09 1.321 1.09.752 0 1.322-.513 1.322-1.09 0-.54-.5-1.025-1.183-1.083l-.139-.006c-.344 0-.663.11-.904.298l-.098.085-.001.003-.945-.786L5.09 2.5h3.553zM11 7.641v1h-1v-1h1zM14 2.5v6h-1v-5h-1v-1h2z"/>
	</svg>

	<svg width="17" height="11" x="100" y="140">
		<title>video</title>
		<path d="M10.804 5.874L7.601 7.94c-.19.123-.434.054-.546-.153A.466.466 0 0 1 7 7.565v-4.13c0-.24.178-.435.399-.435.071 0 .141.02.202.06l3.203 2.066c.19.122.252.388.14.595a.419.419 0 0 1-.14.153zM2 1a1 1 0 0 0-1 1v7a1 1 0 0 0 1 1h13a1 1 0 0 0 1-1V2a1 1 0 0 0-1-1H2zm0-1h13a2 2 0 0 1 2 2v7a2 2 0 0 1-2 2H2a2 2 0 0 1-2-2V2a2 2 0 0 1 2-2z"/>
	</svg>

	<svg width="20" height="22" x="100" y="160">
		<title>排行榜</title>
		<path d="M2 0h16a2 2 0 0 1 2 2v19a1 1 0 0 1-1.373.927l-8.627-3.464-8.627 3.464a1 1 0 0 1-1.373-.927v-19a2 2 0 0 1 2-2z"/>
	</svg>

	<svg width="14" height="14" x="120" y="0">
		<title>纠错</title>
		<path d="M13 5.246h1v8.754h-14v-14h8.768v1h-7.768v12h12v-7.754zm.207-5.16l.71.703-9.967 10.063-.71-.704 9.967-10.062z"/>
	</svg>

	<svg width="14" height="14" x="120" y="20">
		<title>更多</title>
		<path d="M1 2a1 1 0 1 1 0-2 1 1 0 0 1 0 2zm4 0a1 1 0 1 1 0-2 1 1 0 0 1 0 2zm4 0a1 1 0 1 1 0-2 1 1 0 0 1 0 2z"/>
	</svg>

	<svg width="18" height="18" x="140" y="0">
		<title>排名背景</title>
		<path d="M2 0h14a1 1 0 0 1 1 1v16.64a.5.5 0 0 1-.621.485l-7.379-1.84-7.379 1.84a.5.5 0 0 1-.621-.485v-16.64a1 1 0 0 1 1-1z"/>
	</svg>

	<svg width="18" height="18" x="140" y="0">
		<title>排名背景</title>
		<path d="M2 0h14a1 1 0 0 1 1 1v16.64a.5.5 0 0 1-.621.485l-7.379-1.84-7.379 1.84a.5.5 0 0 1-.621-.485v-16.64a1 1 0 0 1 1-1z"/>
	</svg>

	<svg width="18" height="18" x="139" y="80">
		<title>1</title>
		<path d="M11 4v9h-1.912v-6.93c-.235.197-.557.374-.964.531a4.553 4.553 0 0 1-1.124.293v-1.575c1.075-.303 2.004-.743 2.788-1.319h1.212z"/>
	</svg>

	<svg width="18" height="18" x="139" y="100">
		<title>2</title>
		<path d="M8.173 11.463h3.827v1.537h-6v-.657c0-.461.086-.882.26-1.263.172-.38.41-.736.713-1.066.303-.33.773-.715 1.41-1.157.582-.427.99-.805 1.223-1.134.233-.33.35-.68.35-1.049 0-.796-.443-1.194-1.329-1.194-.777 0-1.518.305-2.225.914v-1.644c.788-.501 1.674-.75 2.656-.75.901 0 1.614.226 2.138.677.524.452.787 1.073.787 1.866 0 .442-.076.84-.228 1.197-.151.356-.37.69-.658 1.003-.287.312-.747.687-1.38 1.126-.61.426-1.02.756-1.23.988-.21.233-.314.434-.314.606z"/>
	</svg>

	<svg width="18" height="18" x="139" y="120">
		<title>3</title>
		<path d="M6 10.955c.635.435 1.376.652 2.223.652.536 0 .962-.109 1.278-.326.315-.217.472-.526.472-.927 0-.412-.187-.727-.562-.944-.374-.217-.9-.326-1.575-.326h-.846v-1.399h.78c1.277 0 1.916-.393 1.916-1.18 0-.741-.49-1.112-1.468-1.112-.639 0-1.259.191-1.86.573v-1.5c.652-.31 1.424-.466 2.312-.466.901 0 1.632.19 2.193.57.56.38.841.908.841 1.582 0 1.138-.63 1.854-1.891 2.146v.028c.663.067 1.193.29 1.59.666.397.376.596.834.596 1.373 0 .828-.33 1.474-.992 1.938-.661.465-1.542.697-2.644.697-.978 0-1.766-.148-2.364-.444v-1.6z"/>
	</svg>

	<svg width="12" height="12" x="139" y="142">
		<title>关闭</title>
		<path d="M6 5.229l5.069-5.07a.545.545 0 0 1 .771.772L6.771 6l5.07 5.069a.545.545 0 0 1-.772.771L6 6.771l-5.069 5.07a.545.545 0 0 1-.771-.772L5.229 6 .159.931A.545.545 0 0 1 .932.16L6 5.229z"/>
	</svg>

	<!-- 评论：表情符号 -->
	<svg width="26" height="26" x="134" y="180">
		<path d="M13 3c5.523 0 10 4.477 10 10s-4.477 10-10 10S3 18.523 3 13 7.477 3 13 3zm0 1a9 9 0 1 0 0 18 9 9 0 0 0 0-18zM8.236 14.823c.712 1.816 2.605 3.062 4.764 3.062 2.145 0 4.029-1.23 4.75-3.03a.5.5 0 0 1 .929.372c-.876 2.185-3.132 3.658-5.68 3.658-2.563 0-4.83-1.491-5.694-3.697a.5.5 0 1 1 .931-.365zm.533-5.9a1.154 1.154 0 1 1 0 2.308 1.154 1.154 0 0 1 0-2.308zm8.462 0a1.154 1.154 0 1 1 0 2.308 1.154 1.154 0 0 1 0-2.308z"/>
	</svg>

	<svg width="18" height="18" x="140" y="160">
		<title>删除</title>
		<path d="M11.985 4.097v-.86c0-.696-.43-1.119-1.083-1.119h-3.798c-.653 0-1.084.423-1.084 1.119v.86h5.965zm-6.985 0v-.902c0-1.212.928-2.195 2.104-2.195h3.798c1.176 0 2.098.983 2.098 2.195v.902h3v1.032h-14v-1.032h3zm2 9.806v-6.71h1.065v6.71h-1.065zm3 0v-6.71h1.083v6.71h-1.083zm2.992-7.742h1v8.258c0 1.426-1.12 2.581-2.5 2.581h-4.992c-1.38 0-2.5-1.155-2.5-2.58v-8.26h1v8.258c0 .856.672 1.549 1.5 1.549h4.992c.828 0 1.5-.693 1.5-1.549v-8.257z"/>
	</svg>

	<svg width="18" height="18" x="160" y="0">
		<title>锁</title>
		<path d="M13 8h-9v8h10v-8h-1zm-8-1v-2a4 4 0 1 1 8 0v2h1a1 1 0 0 1 1 1v8a1 1 0 0 1-1 1h-10a1 1 0 0 1-1-1v-8a1 1 0 0 1 1-1h1zm1 0h6v-2a3 3 0 0 0-6 0v2z"/>
	</svg>

	<svg width="18" height="18" x="160" y="20">
		<title>解锁</title>
		<path d="M9 7h7a1 1 0 0 1 1 1v8a1 1 0 0 1-1 1h-10a1 1 0 0 1-1-1v-8a1 1 0 0 1 1-1h2v-3a3 3 0 0 0-6 0v3h-1v-3a4 4 0 1 1 8 0v3zm-3 1v8h10v-8h-10z"/>
	</svg>

	<svg width="18" height="18" x="160" y="40">
		<title>vip</title>
		<path d="M12.002 3h1.2a1.8 1.8 0 1 1 0 3.6h-1.2V8h-1V3h1zm0 1v1.6h1.2a.8.8 0 1 0 0-1.6h-1.2zm-10-3a1 1 0 0 0-1 1v7a1 1 0 0 0 1 1h14a1 1 0 0 0 1-1V2a1 1 0 0 0-1-1h-14zm0-1h14a2 2 0 0 1 2 2v7a2 2 0 0 1-2 2h-14a2 2 0 0 1-2-2V2a2 2 0 0 1 2-2zm1 3.004h1.076l1.655 4.07 1.654-4.07h1.077l-2.033 5H5.035l-2.033-5zm6-.004h1v5h-1V3z"/>
	</svg>

	<svg width="39" height="15" x="160" y="60">
		<title>无音源</title>
        <path d="m22,11l0,1l-7,0l0,-1l7,0zm-13,-3l0,3l2,0l0,-1l1,0l0,2l-4,0l0,-4l1,0zm19,3l0,1l-1,0l0,-1l1,0zm8,0l0,1l-1,0l0,-1l1,0zm-6,0l0,1l-1,0l0,-1l1,0zm6,-8l0,1l-4,0l0,1l3,0l0,6l-1,0l0,-1l-1,0l0,2l-2,0l0,-1l1,0l0,-1l-1,0l0,1l-1,0l0,-6l1,0l0,-1l-2,0l0,7l-1,0l0,-8l8,0zm-10,6l0,3l-1,0l0,-3l1,0zm-21,2l0,1l-2,0l0,-1l2,0zm12,-5l0,1l3,0l0,-1l1,0l0,1l3,0l0,1l-1,0l0,3l-1,0l0,-3l-7,0l0,3l-1,0l0,-3l-1,0l0,-1l3,0l0,-1l1,0zm-11,4l0,1l-1,0l0,-1l1,0zm15,-1l0,1l-5,0l0,-1l5,0zm-9,-6l0,1l-5,0l0,2l5,0l0,1l-5,0l0,3l-1,0l0,-3l-3,0l0,-1l3,0l0,-2l-3,0l0,-1l9,0zm15,5l0,1l-1,0l0,-1l1,0zm7,0l-3,0l0,1l3,0l0,-1zm0,-2l-3,0l0,1l3,0l0,-1zm-8,0l0,1l-1,0l0,-1l1,0zm-7,-3l0,1l5,0l0,1l-2,0l0,1l-1,0l0,-1l-5,0l0,1l-1,0l0,-1l-2,0l0,-1l5,0l0,-1l1,0zm8,2l0,1l-1,0l0,-1l1,0zm-1,-2l0,2l-1,0l0,-2l1,0zm-8,-1l0,1l-1,0l0,-1l1,0z"/>
		<path fill="transparent" stroke="#000" d="m2.49365,0.52148l34,0c1.10457,0 2,0.89543 2,2l0,10c0,1.10457 -0.89543,2 -2,2l-34,0c-1.10457,0 -2,-0.89543 -2,-2l0,-10c0,-1.10457 0.89543,-2 2,-2z"/>
	</svg>

	<svg width="30" height="30" x="160" y="80">
		<title>刷新</title>
        <path d="M30 0v30H0V0h30zm-1 1H1v28h28V1zM14.84 8c2.393 0 4.557 1.269 5.788 3.266l.395-1.474a.494.494 0 0 1 .61-.342c.266.071.426.34.356.601l-.885 3.304-3.381-.906a.494.494 0 0 1-.357-.601.494.494 0 0 1 .61-.343l1.962.526C18.91 10.186 16.983 9 14.84 9c-3.239 0-5.864 2.686-5.864 6s2.625 6 5.864 6c2.708 0 5.045-1.894 5.69-4.545a.488.488 0 0 1 .592-.365.5.5 0 0 1 .356.606C20.726 19.791 18 22 14.841 22 11.063 22 8 18.866 8 15s3.063-7 6.84-7z"/>
	</svg>

	<svg width="20" height="16" x="160" y="120">
		<title>听书排序</title>
		<path d="M8.195 4.66h.001q.035-.036.062-.076.027-.041.046-.087.02-.045.029-.093.01-.049.01-.098t-.01-.097q-.01-.048-.029-.094-.019-.045-.046-.086-.027-.04-.062-.076L4.66.417Q4.624.382 4.584.354 4.543.327 4.497.308 4.452.29 4.404.28 4.355.27 4.306.27T4.21.28q-.048.01-.094.028-.045.02-.086.046-.04.028-.076.063L.417 3.953q-.035.035-.063.076-.027.041-.046.086-.018.046-.028.094-.01.048-.01.097 0 .05.01.098t.028.093q.02.046.046.087.028.04.063.075v.002q.071.07.163.108.092.038.19.038.1 0 .192-.038.091-.038.162-.108L3.83 1.954v12.378q0 .049.01.097.009.048.028.094.018.045.046.086.027.04.062.075.034.035.075.062.041.028.087.047.045.018.093.028.048.01.098.01h.002q.049 0 .097-.01t.094-.028q.045-.02.086-.047.04-.027.075-.062.035-.034.062-.075.028-.041.047-.086.018-.046.028-.094.01-.048.01-.097V2.002l2.658 2.659q.035.034.076.062.04.027.086.046.045.019.093.028.049.01.098.01t.097-.01q.048-.01.094-.028.045-.019.086-.046.04-.028.076-.062zM9.89 2.393h9.002q.05 0 .097.01.049.01.094.028.045.019.086.046.041.028.076.062.035.035.062.076.027.04.046.086.019.046.028.094.01.048.01.097v.002q0 .05-.01.097-.01.049-.028.094-.019.045-.046.086-.027.041-.062.076-.035.035-.076.062-.04.027-.086.046-.045.019-.094.029-.048.01-.097.01H9.891q-.05 0-.097-.01-.048-.01-.094-.029-.045-.019-.086-.046-.041-.027-.076-.062-.035-.035-.062-.076-.027-.04-.046-.086-.019-.045-.028-.094-.01-.048-.01-.097v-.002q0-.049.01-.097T9.43 2.7q.019-.045.046-.086.027-.041.062-.076.035-.034.076-.062.04-.027.086-.046.046-.019.094-.028.048-.01.097-.01zm9.002 5H9.891q-.05 0-.097.01-.048.01-.094.028-.045.019-.086.046-.041.028-.076.062-.035.035-.062.076-.027.04-.046.086-.019.046-.028.094-.01.048-.01.097v.002q0 .05.01.097.01.049.028.094.019.045.046.086.027.041.062.076.035.035.076.062.04.027.086.046.046.019.094.029.048.01.097.01h9.002q.05 0 .097-.01.049-.01.094-.029.045-.019.086-.046.041-.027.076-.062.035-.035.062-.076.027-.04.046-.086.019-.045.028-.094.01-.048.01-.097v-.002q0-.049-.01-.097t-.028-.094q-.019-.045-.046-.086-.027-.041-.062-.076-.035-.034-.076-.062-.04-.027-.086-.046-.045-.019-.094-.028-.048-.01-.097-.01zm-9.002 5h9.002q.05 0 .097.01.049.01.094.028.045.019.086.046.041.027.076.062.035.035.062.076.027.04.046.086.019.046.028.094.01.048.01.097v.002q0 .05-.01.097-.01.049-.028.094-.019.045-.046.086-.027.041-.062.076-.035.035-.076.062-.04.027-.086.046-.045.019-.094.028-.048.01-.097.01H9.891q-.05 0-.097-.01-.048-.009-.094-.028-.045-.019-.086-.046-.041-.027-.076-.062-.035-.035-.062-.076-.027-.04-.046-.086-.019-.045-.028-.094-.01-.048-.01-.097v-.002q0-.049.01-.097t.028-.094q.019-.045.046-.086.027-.041.062-.076.035-.035.076-.062.04-.027.086-.046.046-.019.094-.028.048-.01.097-.01z" fill-rule="evenodd"/>
	</svg>

	<svg width="16" height="18" x="160" y="160">
		<title>下一首</title>
		<path d="m2.0675,16.3295l10.1244,-7.00643q0.0996,-0.06894 0.1799,-0.15971q0.0802,-0.09077 0.1365,-0.19809q0.0562,-0.10733 0.0851,-0.22498q0.029,-0.11765 0.029,-0.23882q0,-0.12116 -0.029,-0.23881q-0.029,-0.11765 -0.0853,-0.22495q-0.0562,-0.10731 -0.1365,-0.19806q-0.0803,-0.09075 -0.1799,-0.15967l-10.12441,-7.00259q-0.11243,-0.07776 -0.24161,-0.12246q-0.12919,-0.04471 -0.26564,-0.05306q-0.13644,-0.00835 -0.27012,0.02026q-0.13367,0.02862 -0.25474,0.09209q-0.12108,0.06347 -0.22065,0.15713q-0.09957,0.09366 -0.17032,0.21063q-0.07075,0.11697 -0.10747,0.24865q-0.03673,0.13168 -0.03673,0.26838l0,14.00899q0,0.1367 0.03673,0.2684q0.03674,0.1317 0.1075,0.2487q0.07077,0.117 0.17036,0.2106q0.09959,0.0937 0.22069,0.1572q0.12109,0.0634 0.25479,0.092q0.13369,0.0286 0.27015,0.0202q0.13646,-0.0083 0.26566,-0.0531q0.12919,-0.0447 0.24161,-0.1225zm12.4335,-15.70853l-0.002,0q-0.0984,0 -0.1949,0.0192q-0.0965,0.01919 -0.1874,0.05685q-0.0909,0.03765 -0.1727,0.09231q-0.0818,0.05467 -0.1514,0.12424q-0.0696,0.06958 -0.1242,0.15139q-0.0547,0.08181 -0.0924,0.17271q-0.0376,0.0909 -0.0568,0.18741q-0.0192,0.0965 -0.0192,0.19489l0,13.76703q0,0.0984 0.0192,0.1949q0.0192,0.0965 0.0568,0.1874q0.0377,0.091 0.0924,0.1728q0.0546,0.0818 0.1242,0.1513q0.0696,0.0696 0.1514,0.1243q0.0818,0.0546 0.1727,0.0923q0.0909,0.0377 0.1874,0.0569q0.0965,0.0191 0.1949,0.0191l0.002,0q0.0984,0 0.1949,-0.0191q0.0965,-0.0192 0.1874,-0.0569q0.0909,-0.0377 0.1727,-0.0923q0.0818,-0.0547 0.1514,-0.1243q0.0696,-0.0695 0.1242,-0.1513q0.0547,-0.0818 0.0924,-0.1728q0.0376,-0.0909 0.0568,-0.1874q0.0192,-0.0965 0.0192,-0.1949l0,-13.76703q0,-0.09839 -0.0192,-0.19489q-0.0192,-0.09651 -0.0568,-0.18741q-0.0377,-0.0909 -0.0924,-0.17271q-0.0546,-0.08181 -0.1242,-0.15139q-0.0696,-0.06957 -0.1514,-0.12424q-0.0818,-0.05466 -0.1727,-0.09231q-0.0909,-0.03766 -0.1874,-0.05685q-0.0965,-0.0192 -0.1949,-0.0192z"/>
	</svg>

	<svg width="14" height="14" x="160" y="180">
		<title>播放中</title>
		<path d="M2.5,6 C2.77614237,6 3,6.22385763 3,6.5 L3,12.5 C3,12.7761424 2.77614237,13 2.5,13 C2.22385763,13 2,12.7761424 2,12.5 L2,6.5 C2,6.22385763 2.22385763,6 2.5,6 Z M11.5,8 C11.7761424,8 12,8.22385763 12,8.5 L12,12.5 C12,12.7761424 11.7761424,13 11.5,13 C11.2238576,13 11,12.7761424 11,12.5 L11,8.5 C11,8.22385763 11.2238576,8 11.5,8 Z M5.5,1 C5.77614237,1 6,1.22385763 6,1.5 L6,12.5 C6,12.7761424 5.77614237,13 5.5,13 C5.22385763,13 5,12.7761424 5,12.5 L5,1.5 C5,1.22385763 5.22385763,1 5.5,1 Z M8.5,4 C8.77614237,4 9,4.22385763 9,4.5 L9,12.5 C9,12.7761424 8.77614237,13 8.5,13 C8.22385763,13 8,12.7761424 8,12.5 L8,4.5 C8,4.22385763 8.22385763,4 8.5,4 Z"/>
	</svg>

	<svg width="20" height="20" x="0" y="270">
		<title>喜欢</title>
		<path d="M12.205 15.297c.126-.125.998-.913 1.14-1.044.653-.6 1.226-1.158 1.772-1.738.985-1.047 1.755-2.039 2.255-2.956.407-.747.617-1.417.617-1.99 0-2.805-1.683-4.369-3.647-4.369-.926 0-1.73.238-2.428.715a.609.609 0 0 1-.842-.153.597.597 0 0 1 .155-.834C12.13 2.309 13.175 2 14.342 2 16.958 2 19.2 4.084 19.2 7.57c0 .798-.268 1.652-.763 2.56-.556 1.02-1.385 2.088-2.434 3.203a35.246 35.246 0 0 1-1.834 1.8c-.164.15-1.005.91-1.108 1.012-.752.746-2.445 2.203-2.805 2.434-.476.303-.953.302-1.366-.05l-.24-.204c-.144-.122-.299-.256-.482-.417-.501-.44-1.132-1.008-1.934-1.748-.204-.189-1.113-1-1.191-1.071a39.253 39.253 0 0 1-1.485-1.4C1.498 11.63.253 9.769.033 7.915A4.646 4.646 0 0 1 0 7.367c0-3.394 2.306-5.284 4.794-5.284 1.508 0 2.792.465 3.845 1.36.634.54 1.65 1.61 3.064 3.227.219.25.191.63-.061.846a.61.61 0 0 1-.854-.06C9.41 5.882 8.426 4.843 7.85 4.355c-.833-.708-1.836-1.072-3.057-1.072-1.864 0-3.583 1.409-3.583 4.084 0 .134.008.27.024.408.18 1.513 1.3 3.188 3.182 5.069.435.434.887.858 1.44 1.358.073.065.99.883 1.203 1.08.794.733 1.417 1.295 1.91 1.728a41.401 41.401 0 0 0 .642.552c.307-.206 1.906-1.585 2.593-2.265z"/>
	</svg>

	<svg width="20" height="20" x="0" y="300">
		<title>不喜欢</title>
		<path d="M19.077 8.838c-.568 3.335-5.84 7.218-8.34 9.215-.513.396-1.33.947-1.33.947s-.935-.791-1.029-.82c-.288-.233-.62-.5-.982-.794l.69-.717c.315.264.663.554 1.062.885l.073.05a4.754 4.754 0 0 1 .252.196l.055-.041.032-.024c.133-.1.25-.19.328-.25.206-.17 1.323-1.076 1.663-1.356.72-.593 1.33-1.11 1.91-1.629 1.628-1.454 2.847-2.762 3.616-3.95.457-.705.73-1.333.817-1.862.136-.82.138-1.553.025-2.195l.975-1.009c.314.924.406 2.043.183 3.354zm-2.522-6.074l-.871.901a4.028 4.028 0 0 0-.327-.108c-1.842-.528-3.817.302-4.635 2.083a1.38 1.38 0 0 1-2.522.016c-.868-1.83-2.724-2.575-4.473-1.99-1.82.61-2.86 2.423-2.43 5.021.116.7.61 1.636 1.452 2.725.693.896 1.59 1.859 2.664 2.881l-.732.762C2.547 13.095.444 10.768.115 8.838c-1.054-6.178 5.402-8.352 8.482-5l.526.678s.234.387.337.598c.1-.212.213-.413.335-.602l.523-.674c1.607-1.738 4.25-2.088 6.237-1.074zM17.903 2.703l-13.53 14.16a.676.676 0 0 0 .018.95c.265.258.688.25.944-.018l13.53-14.16a.676.676 0 0 0-.019-.95.664.664 0 0 0-.943.018z"/>
	</svg>

	<svg width="20" height="20" x="0" y="330">
		<title>已喜欢</title>
		<path d="M8.536 3.496l.566.57c.128.135.252.262.49.504l.006-.004 1.376 1.387a.766.766 0 0 0 1.087 0c.301-.303.301-.792 0-1.095l-1.41-1.418c3.177-3.186 9.483-.931 8.433 5.28-.549 3.246-8.564 9.63-8.564 9.63-.512.421-1.344.426-1.862-.004 0 0-7.9-6.262-8.515-9.668-.336-1.87-.045-3.186.523-4.243 1.546-2.883 5.6-2.983 7.87-.937v-.002z"/>
	</svg>

	<svg width="20" height="20" x="0" y="360">
		<title>下一首</title>
		<path d="M3.08 2c.221 0 .437.068.618.194l10.428 7.28a1.08 1.08 0 0 1 0 1.77L3.698 18.529A1.08 1.08 0 0 1 2 17.643V3.08C2 2.484 2.484 2 3.08 2zm13.48.088c.574 0 1.04.465 1.04 1.04v14.467a1.04 1.04 0 0 1-2.08 0V3.128c0-.575.466-1.04 1.04-1.04z"/>
	</svg>

	<svg width="20" height="20" x="30" y="270">
		<title>无评论</title>
		<path d="M15.61 2c1.403 0 2.54 1.176 2.54 2.632l-.001.661.001.012V13.888c0 1.454-1.138 2.632-2.54 2.632h-3.336a.806.806 0 0 0-.615.29l-1.364 1.613a.798.798 0 0 1-1.23 0L7.7 16.81a.806.806 0 0 0-.615-.289H3.75c-1.404 0-2.541-1.176-2.541-2.632V4.632C1.21 3.178 2.348 2 3.75 2h11.86zM5.432 3.209l-1.685.001c-.679 0-1.238.531-1.31 1.213l-.018.148v9.368c0 .703.524 1.29 1.184 1.363l.144.008H7.14a1.9 1.9 0 0 1 1.361.568l.136.145 1.057 1.25 1.06-1.25c.345-.408.873-.652 1.391-.703l.196-.01h3.327c.679 0 1.193-.54 1.264-1.223l.008-.148V4.571c0-.702-.468-1.28-1.128-1.353l-.144-.008H5.445l-.012-.001zM6.05 8.05c.626 0 1.142.472 1.204 1.086l.006.124c0 .626-.472 1.142-1.086 1.204l-.124.006c-.668 0-1.21-.537-1.21-1.21 0-.626.472-1.142 1.086-1.204l.124-.006zm3.63 0c.626 0 1.142.472 1.204 1.086l.006.124c0 .626-.472 1.142-1.086 1.204l-.124.006c-.668 0-1.21-.537-1.21-1.21 0-.626.472-1.142 1.086-1.204l.124-.006zm3.63 0c.626 0 1.142.472 1.204 1.086l.006.124c0 .626-.472 1.142-1.086 1.204l-.124.006c-.668 0-1.21-.537-1.21-1.21 0-.626.472-1.142 1.086-1.204l.124-.006z"/>
	</svg>

	<svg width="20" height="20" x="30" y="300">
		<title>评论9</title>
		<path d="M11.495 2a.605.605 0 1 1 0 1.21h-6.05l-.012-.001-1.685.001c-.679 0-1.238.531-1.31 1.213l-.018.148v9.368c0 .703.524 1.29 1.184 1.363l.144.008H7.14a1.9 1.9 0 0 1 1.361.568l.136.145 1.057 1.25 1.06-1.25c.345-.408.873-.652 1.391-.703l.196-.01h3.327c.679 0 1.193-.54 1.264-1.223l.008-.148V8.655c0-.3.22-.55.507-.597l.098-.008c.334 0 .605.27.605.605V13.888c0 1.454-1.138 2.632-2.54 2.632h-3.336a.806.806 0 0 0-.615.29l-1.364 1.613a.798.798 0 0 1-1.23 0L7.7 16.81a.806.806 0 0 0-.615-.289H3.75c-1.404 0-2.541-1.176-2.541-2.632V4.632C1.21 3.178 2.348 2 3.75 2h7.745zM6.05 8.05c.626 0 1.142.472 1.204 1.086l.006.124c0 .626-.472 1.142-1.086 1.204l-.124.006c-.668 0-1.21-.537-1.21-1.21 0-.626.472-1.142 1.086-1.204l.124-.006zm3.63 0c.626 0 1.142.472 1.204 1.086l.006.124c0 .626-.472 1.142-1.086 1.204l-.124.006c-.668 0-1.21-.537-1.21-1.21 0-.626.472-1.142 1.086-1.204l.124-.006zm3.63 0c.626 0 1.142.472 1.204 1.086l.006.124c0 .626-.472 1.142-1.086 1.204l-.124.006c-.668 0-1.21-.537-1.21-1.21 0-.626.472-1.142 1.086-1.204l.124-.006z"/>
	</svg>

	<svg width="20" height="20" x="30" y="330">
		<title>评论99</title>
		<path d="M7.865 2a.605.605 0 0 1 0 1.21h-2.42l-.012-.001-1.685.001c-.679 0-1.249.531-1.32 1.213l-.008.148.019 9.368c0 .703.453 1.29 1.114 1.363l.143.008h3.392a2.02 2.02 0 0 1 1.413.568l.136.145 1.057 1.25 1.06-1.25a1.949 1.949 0 0 1 1.316-.703l.195-.01h3.328c.678 0 1.268-.54 1.34-1.223l.007-.148-.001-4.679h.001v-.605c0-.3.22-.55.507-.597l.098-.008c.334 0 .605.27.605.605V13.888c0 1.454-1.138 2.632-2.54 2.632h-3.336a.806.806 0 0 0-.615.29l-1.364 1.613a.798.798 0 0 1-1.23 0L7.7 16.81a.806.806 0 0 0-.615-.289H3.75c-1.404 0-2.541-1.176-2.541-2.632V4.632C1.21 3.178 2.348 2 3.75 2h4.115zM6.05 8.05c.626 0 1.142.472 1.204 1.086l.006.124c0 .626-.472 1.142-1.086 1.204l-.124.006c-.668 0-1.21-.537-1.21-1.21 0-.626.472-1.142 1.086-1.204l.124-.006zm3.63 0c.626 0 1.142.472 1.204 1.086l.006.124c0 .626-.472 1.142-1.086 1.204l-.124.006c-.668 0-1.21-.537-1.21-1.21 0-.626.472-1.142 1.086-1.204l.124-.006zm3.63 0c.626 0 1.142.472 1.204 1.086l.006.124c0 .626-.472 1.142-1.086 1.204l-.124.006c-.668 0-1.21-.537-1.21-1.21 0-.626.472-1.142 1.086-1.204l.124-.006z"/>
	</svg>

	<svg width="20" height="20" x="30" y="360">
		<title>评论999+</title>
		<path d="M5.445 2a.605.605 0 0 1 0 1.21H2.61c-.675 0-1.321.517-1.392 1.199l-.008.148v9.382c0 .703.555 1.29 1.211 1.363l.143.008h3.383c.523 0 1.014.199 1.39.568l.135.145 1.052 1.25 1.053-1.25a2 2 0 0 1 1.34-.703l.194-.01h3.309c.675 0 1.231-.54 1.303-1.223l.007-.148.017-3.932a.607.607 0 0 1-.017-.142v-1.21a.605.605 0 1 1 1.21 0V13.888c0 1.454-1.138 2.632-2.54 2.632h-3.336a.806.806 0 0 0-.615.29l-1.364 1.613a.798.798 0 0 1-1.23 0L6.49 16.81a.806.806 0 0 0-.615-.289H2.54C1.137 16.52 0 15.344 0 13.888V4.632C0 3.178 1.138 2 2.54 2h2.905zM4.84 8.05c.626 0 1.142.472 1.204 1.086l.006.124c0 .626-.472 1.142-1.086 1.204l-.124.006c-.668 0-1.21-.537-1.21-1.21 0-.626.472-1.142 1.086-1.204l.124-.006zm3.63 0c.626 0 1.142.472 1.204 1.086l.006.124c0 .626-.472 1.142-1.086 1.204l-.124.006c-.668 0-1.21-.537-1.21-1.21 0-.626.472-1.142 1.086-1.204l.124-.006zm3.63 0c.626 0 1.142.472 1.204 1.086l.006.124c0 .626-.472 1.142-1.086 1.204l-.124.006c-.668 0-1.21-.537-1.21-1.21 0-.626.472-1.142 1.086-1.204l.124-.006z"/>
	</svg>

	<svg width="16" height="16" x="0" y="380">
		<title>编辑</title>
		<path d="M12.81 16H3.19C1.43 16 0 14.57 0 12.81V3.19C0 1.43 1.43 0 3.19 0h5.83c.28 0 .51.23.51.51s-.22.5-.5.5H3.19c-1.2 0-2.18.98-2.18 2.18v9.61c0 1.2.98 2.18 2.18 2.18h9.62c1.2 0 2.18-.98 2.18-2.17V7.53c0-.28.23-.51.51-.51s.51.23.51.51v5.28a3.207 3.207 0 01-3.2 3.19zM15.54.73l.06.09.06.09c.02.03.03.06.05.1.01.03.03.07.04.1l.03.1c.01.04.01.07.02.11 0 .04.01.07.01.11s0 .07-.01.11c0 .04-.01.07-.02.11-.01.04-.02.07-.03.1-.01.03-.02.07-.04.1-.01.03-.03.07-.05.1l-.06.09-.06.09c-.02.03-.05.05-.07.08l-.47.47-1.55-1.55.46-.48c.03-.03.05-.05.08-.07l.09-.06.09-.06c.03-.02.06-.03.1-.05.03-.01.07-.03.1-.04l.1-.03c.04-.01.07-.01.11-.02.04 0 .07-.01.11-.01.04 0 .07 0 .11.01.04 0 .07.01.11.02.04.01.07.02.1.03.03.01.07.02.1.04.03.01.07.03.1.05l.09.06.09.06c.03.02.05.05.08.07.02.03.04.06.07.08zm-7.8 9.2c-.27.27-.57.49-.91.66l-1.99 1c-.02.01-.04.02-.06.02h-.06c-.02 0-.04-.01-.06-.02-.01-.02-.03-.03-.04-.05a.218.218 0 01-.04-.05c-.01-.02-.02-.04-.02-.06v-.06c0-.02.01-.04.02-.06l.95-1.99c.17-.36.4-.68.68-.97l6.3-6.3 1.55 1.55-6.32 6.33z"/>
	</svg>

	<svg width="33" height="11" x="80" y="220">
		<title>hi-res</title>
		<path d="M30.637 0c1.103 0 1.996.895 1.996 2v7c0 1.105-.893 2-1.996 2H1.997A1.998 1.998 0 0 1 0 9V2C0 .895.894 0 1.996 0h28.641zm0 1H1.997a1 1 0 0 0-.999 1v7a1 1 0 0 0 .998 1h28.641a1 1 0 0 0 .998-1V2a1 1 0 0 0-.998-1zm-7.995 2.995c.691 0 1.22.214 1.586.658.317.379.369 1.075.373 1.754v.107h-3.017c.033.368.139.46.318.652.178.191.439.29.772.29.285 0 .513-.06.692-.183.125-.09.238-.096.343-.263l.03-.056h.863c-.098.368-.228.518-.52.763-.375.299-.838.452-1.4.452-.626 0-1.122-.184-1.488-.544-.39-.375-.586-.888-.586-1.547 0-.59.18-1.08.553-1.478.358-.406.854-.605 1.48-.605zm4.786 0c1.072 0 1.678.388 1.803 1.178l.011.078h-.903c-.065-.2-.163-.345-.293-.421-.124-.076-.295-.089-.535-.09h-.083c-.244 0-.447-.002-.57.067a.334.334 0 0 0-.21.329c0 .123.105.237.333.33.138.053.414.13.837.229.472.107.83.23 1.058.375.333.2.504.483.504.835 0 .843-.634 1.264-1.895 1.264-1.137 0-1.794-.556-1.913-1.436l-.01-.08.965-.123c.049.253.193.542.332.65.138.091.437.131.746.131.65 0 .824-.023.824-.345 0-.183-.123-.329-.367-.436-.13-.061-.406-.13-.83-.222-.495-.107-.845-.222-1.049-.345-.325-.191-.488-.46-.488-.804 0-.368.155-.651.48-.85.318-.215.732-.314 1.253-.314zM3.994 2.887l.035 1.878h2.946l-.036-1.878 1.081.01v5.168l-1.045.013V5.867H4.029v2.197H2.933l-.035-5.177h1.096zm13.601.01c.562 0 1.008.106 1.331.346.34.26.516.638.516 1.13a1.184 1.184 0 0 1-.845 1.151l-.087.025v.014c.453.096.719.368.798.828l.011.079.092.833c.028.288.125.522.278.703l.054.059H18.51c-.13-.16-.17-.73-.202-1.02-.125-.451-.239-.719-.341-.8-.104-.085-.674-.088-1.71-.01l-.118.01v1.833l-1.13-.013.024-5.168h2.562zM10.201 4.74v3.326H9.197V4.739h1.004zm3.366.028v1.1h-2.2v-1.1h2.2zm9.144.185c-.309 0-.63.047-.81.216-.157.148-.246.222-.303.48l-.014.068 2.156.15c0-.813-.49-.905-.94-.913h-.089zm-6.445-.96l-.127.003v1.123c.512.03.928.047 1.25.05h.152c.362-.003.574-.029.638-.076.17-.145.277-.254.277-.515 0-.021-.12-.375-.277-.49-.109-.083-.747-.115-1.913-.095zM9.695 2.897a.69.69 0 0 1 .469.166c.117.11.184.252.184.426a.56.56 0 0 1-.193.433.668.668 0 0 1-.46.166.668.668 0 0 1-.46-.166.565.565 0 0 1-.185-.433c0-.174.059-.316.184-.426a.668.668 0 0 1 .46-.166z"/>
	</svg>

	<svg width="20" height="15" x="80" y="240">
		<title>photo</title>
		<path d="M16.547 0C18.454 0 20 1.526 20 3.41v8.18c0 1.884-1.546 3.41-3.453 3.41H3.453C1.546 15 0 13.474 0 11.59V3.41C0 1.525 1.546 0 3.453 0zM5.179 7.551l-.101.092-3.61 3.631a.756.756 0 0 1-.087.075v.242c0 1.13.928 2.045 2.072 2.045h13.094c.74 0 1.391-.384 1.757-.962l-3.199-3.218a1.252 1.252 0 0 0-1.671-.092l-.102.092-1.808 1.818a.75.75 0 0 1-.98.073l-.083-.073-3.61-3.631a1.252 1.252 0 0 0-1.672-.092zm11.368-6.187H3.453c-1.144 0-2.072.915-2.072 2.045v5.824l2.633-2.648a2.75 2.75 0 0 1 3.751-.14l.15.14 3.077 3.096 1.277-1.283a2.75 2.75 0 0 1 3.75-.14l.15.14 2.449 2.463V3.409a2.057 2.057 0 0 0-1.917-2.04l-.154-.005zm-4.739.752a2.5 2.5 0 1 1 0 5 2.5 2.5 0 0 1 0-5zm0 1.428a1.071 1.071 0 1 0 0 2.143 1.071 1.071 0 0 0 0-2.143z" fill-rule="nonzero"/>
	</svg>

	<svg width="20" height="20" x="80" y="260">
		<title>photo icon</title>
		<path d="M10 0c5.523 0 10 4.477 10 10s-4.477 10-10 10S0 15.523 0 10 4.477 0 10 0zM6.833 9.269l-.07.057-4.721 4.723-.058.048A9 9 0 0 0 10 19a9 9 0 0 0 8.055-4.982l-2.66-2.66a.5.5 0 0 0-.637-.059l-.07.058-2.24 2.24a.5.5 0 0 1-.637.058l-.07-.058-4.27-4.27a.5.5 0 0 0-.638-.058zM10 1a9 9 0 0 0-8.445 12.12l4.502-4.5a1.5 1.5 0 0 1 2.007-.104l.114.103 3.917 3.918 1.886-1.887a1.5 1.5 0 0 1 2.008-.103l.114.103 2.376 2.375A9 9 0 0 0 10 1zm2.59 3.777a1.82 1.82 0 1 1 0 3.641 1.82 1.82 0 0 1 0-3.641zm0 1a.82.82 0 1 0 0 1.641.82.82 0 0 0 0-1.641z" fill-rule="nonzero"/>
	</svg>

	<svg width="20" height="20" x="80" y="290">
		<title>不喜欢</title>
		<path d="M10.08 4.633a5.317 5.317 0 0 1 7.546.054c2.078 2.108 2.101 5.52.054 7.658l-3.892 3.946c-.104.126-.214.25-.33.367l-2.598 2.637a1.684 1.684 0 0 1-2.404 0l-6.828-6.93A5.508 5.508 0 0 1 .177 7.066a5.414 5.414 0 0 1 3.83-3.888 5.32 5.32 0 0 1 5.219 1.473l.418.424.437-.443zm6.817.793a4.224 4.224 0 0 0-6.034 0l-.731.74-1.83 2.312 3.774 2.711-3.26 3.781a.35.35 0 0 1-.26.12.34.34 0 0 1-.301-.177.35.35 0 0 1 .008-.353l1.827-3.057-3.761-2.77 2.365-3.035-.25-.253a4.223 4.223 0 0 0-5.87-.158l-.165.158a4.365 4.365 0 0 0-1.25 3.063c0 1.149.45 2.25 1.25 3.063l6.83 6.93a.589.589 0 0 0 .839 0l2.598-2.636a4.21 4.21 0 0 0 .14-.148l.157-.181 3.924-3.984a4.364 4.364 0 0 0 1.25-3.063c0-1.149-.45-2.25-1.25-3.063z" fill-rule="nonzero"/>
	</svg>

	<svg width="16" height="12" x="80" y="320">
		<title>超级订阅</title>
		<path d="M8,12c-0.54,0-1.07-0.19-1.49-0.57L1.39,6.68c-0.8-0.75-1.25-1.75-1.24-2.81c0.01-1.06,0.46-2.06,1.29-2.8
	C3.06-0.38,5.7-0.34,7.32,1.17l2,1.86c0.39,0.36,0.8,1.02,0.82,1.77c0.01,0.56-0.21,1.09-0.65,1.52C8.41,7.41,6.94,7,6.03,6.16
	L3.5,3.96l0.61-0.69l2.54,2.22C6.78,5.6,7.91,6.6,8.85,5.67c0.26-0.26,0.38-0.54,0.38-0.85C9.22,4.38,8.96,3.95,8.7,3.71L6.69,1.84
	C5.41,0.66,3.34,0.62,2.05,1.77C1.42,2.33,1.08,3.08,1.07,3.88C1.06,4.68,1.4,5.43,2.02,6l5.13,4.75c0.47,0.43,1.24,0.43,1.72,0
	L13.98,6c0.61-0.56,0.94-1.31,0.94-2.1s-0.33-1.53-0.94-2.1c-1.21-1.13-3.18-1.18-4.47-0.14L8.93,0.95
	c1.64-1.33,4.14-1.25,5.68,0.18c0.79,0.74,1.24,1.73,1.24,2.77s-0.44,2.03-1.24,2.77l-5.13,4.76C9.07,11.81,8.54,12,8,12z" fill-rule="nonzero"/>
	</svg>

</svg>